<svg xmlns="http://www.w3.org/2000/svg" width="130" height="37" viewBox="0 0 130 37"><title>logo-miur</title><g id="eae5c3f4-d81f-4413-8939-d649a5c7beb9" data-name="Livello 2"><g id="06e01c72-d1ee-4e2d-9ba5-c53ff000076a" data-name="Livello 1"><path d="M127.118,25.465l-8.689,8.662a9.932,9.932,0,0,1-13.974,0l-8.689-8.662a9.857,9.857,0,0,1,0-13.93l8.689-8.662a9.932,9.932,0,0,1,13.974,0l8.689,8.662A9.857,9.857,0,0,1,127.118,25.465Z" fill="#179dc2"/><path d="M96.156,25.465l-8.689,8.662a9.932,9.932,0,0,1-13.974,0l-8.689-8.662a9.857,9.857,0,0,1,0-13.93l8.689-8.662a9.932,9.932,0,0,1,13.974,0l8.689,8.662A9.857,9.857,0,0,1,96.156,25.465Z" fill="#87b915"/><path d="M65.195,25.465l-8.689,8.662a9.932,9.932,0,0,1-13.974,0l-8.689-8.662a9.857,9.857,0,0,1,0-13.93l8.689-8.662a9.932,9.932,0,0,1,13.974,0l8.689,8.662A9.857,9.857,0,0,1,65.195,25.465Z" fill="#fbc000"/><path d="M34.233,25.465l-8.689,8.662a9.932,9.932,0,0,1-13.974,0L2.882,25.465a9.857,9.857,0,0,1,0-13.93l8.689-8.662a9.932,9.932,0,0,1,13.974,0l8.689,8.662A9.857,9.857,0,0,1,34.233,25.465Z" fill="#ab2442"/><path d="M18.574,14.381c.806-.865,1.5-1.589,2.169-2.33a2.134,2.134,0,0,1,3.8,1.5c.018,2.51.008,5.019.009,7.529,0,.976.02,1.953-.006,2.928a2.1,2.1,0,0,1-2.12,2.307,2.081,2.081,0,0,1-2.078-2.325c-.016-1.779,0-3.559,0-5.5a2.5,2.5,0,0,1-3.624-.1c0,1.448,0,2.662,0,3.875,0,.7.021,1.4-.01,2.091a2.067,2.067,0,0,1-4.109.19,5.16,5.16,0,0,1-.037-.751c0-3.346.01-6.692-.008-10.039a2.206,2.206,0,0,1,1.327-2.377,2.244,2.244,0,0,1,2.617.8C17.118,12.871,17.764,13.527,18.574,14.381Z" fill="#fff"/><path d="M85.075,18.822c0,1.755.009,3.51,0,5.264a2.1,2.1,0,0,1-2.306,2.268c-1.537.009-3.073.011-4.61,0a2.071,2.071,0,0,1-2.261-2.225q-.029-5.348,0-10.7a2.036,2.036,0,0,1,2.064-2.241,2.087,2.087,0,0,1,2.2,2.219c.031,2.451.011,4.9.012,7.353,0,.167.015.339.009.5-.017.49.062.843.3.843.2,0,.312-.326.315-.884.022-2.59.005-5.181.018-7.771a2.1,2.1,0,0,1,1.816-2.239,2.057,2.057,0,0,1,2.439,2.1C85.092,15.145,85.074,16.984,85.075,18.822Z" fill="#fff"/><path d="M107.361,18.788c0-1.644-.015-3.287,0-4.931.023-1.92.8-2.7,2.7-2.71,1.425-.01,2.852-.033,4.275.02a2.111,2.111,0,0,1,2.29,1.97,2.172,2.172,0,0,1-2.247,2.367,12.323,12.323,0,0,1-1.676,0c-.724-.053-.987.22-.978.956.033,2.535.022,5.07.006,7.605a2.188,2.188,0,0,1-1.851,2.326,2.122,2.122,0,0,1-2.482-2.093c-.09-1.639-.038-3.286-.047-4.929,0-.2,0-.39,0-.585Z" fill="#fff"/><path d="M51.681,21.13c0,1.03.014,2.06,0,3.089a2.155,2.155,0,1,1-4.309.035q-.03-3.089,0-6.179a2.107,2.107,0,0,1,2.175-2.155,2.141,2.141,0,0,1,2.135,2.2C51.693,19.126,51.681,20.128,51.681,21.13Z" fill="#fff"/><path d="M47.364,13.287a2.158,2.158,0,1,1,4.314.1,2.158,2.158,0,1,1-4.314-.1Z" fill="#fff"/></g></g></svg>